<?xml version="1.0" standalone="no"?>
<!DOCTYPE svg PUBLIC "-//W3C//DTD SVG 20010904//EN"
 "http://www.w3.org/TR/2001/REC-SVG-20010904/DTD/svg10.dtd">
<svg version="1.0" xmlns="http://www.w3.org/2000/svg"
 width="500.000000pt" height="500.000000pt" viewBox="0 0 500.000000 500.000000"
 preserveAspectRatio="xMidYMid meet">
<metadata>
Created by potrace 1.14, written by Peter Selinger 2001-2017
</metadata>
<g transform="translate(0.000000,500.000000) scale(0.100000,-0.100000)"
fill="#000000" stroke="none">
<path d="M2297 3846 c-52 -19 -79 -46 -118 -119 -80 -152 -114 -181 -208 -175
-53 3 -56 2 -56 -21 0 -19 13 -31 64 -59 55 -31 76 -36 145 -40 62 -3 94 0
139 15 31 11 57 19 57 18 0 -2 -11 -27 -24 -56 -14 -30 -28 -80 -31 -111 -7
-56 -8 -58 -36 -58 -17 0 -32 -6 -35 -15 -15 -38 80 -164 124 -166 9 0 -10
-10 -44 -23 -59 -22 -134 -70 -134 -87 0 -15 -65 -69 -82 -69 -10 0 -32 -13
-51 -30 -23 -20 -37 -26 -44 -19 -6 6 -26 9 -44 7 -31 -3 -41 -13 -111 -118
-79 -115 -92 -154 -65 -182 8 -7 75 -53 149 -103 134 -88 136 -91 130 -120 -4
-16 -7 -66 -7 -110 0 -98 10 -104 81 -45 89 73 131 84 354 86 145 1 210 6 255
18 131 36 205 90 281 202 52 78 63 105 70 173 4 41 0 73 -14 119 -11 34 -17
64 -13 66 3 2 24 7 46 11 69 12 144 56 202 118 35 39 65 62 85 66 49 10 55 30
29 94 -24 60 -61 104 -98 118 -20 7 -23 16 -23 61 0 98 -55 154 -141 146 -40
-4 -57 -12 -84 -38 -31 -31 -35 -32 -41 -14 -36 102 -94 173 -177 213 -91 44
-221 51 -309 16 -16 -6 -17 -4 -7 25 43 122 -91 251 -214 206z m108 -256 c-20
-22 -31 -20 -22 5 4 8 14 15 23 15 16 0 16 -2 -1 -20z m338 -5 c106 -27 182
-95 213 -188 22 -67 23 -252 0 -295 -26 -50 -36 -48 -36 8 0 41 -5 56 -25 75
-28 29 -36 30 -75 10 -18 -9 -53 -15 -91 -14 -58 2 -65 0 -91 -30 -34 -38 -37
-91 -8 -139 l20 -33 -37 7 c-87 15 -179 58 -212 98 -7 9 -28 16 -46 16 -37 0
-72 25 -98 69 -21 37 -15 39 59 16 67 -20 71 -19 90 16 15 31 15 32 -10 53
-31 25 -56 83 -56 129 0 72 109 171 220 201 71 19 113 19 183 1z m-303 -25
c-20 -13 -33 -13 -25 0 3 6 14 10 23 10 15 0 15 -2 2 -10z m745 -170 c3 -5 -4
-10 -15 -10 -83 0 -164 -177 -119 -261 12 -24 12 -24 -10 -5 -65 58 -37 217
48 270 29 17 87 21 96 6z m-15 -80 c0 -22 -7 -57 -16 -78 -15 -37 -61 -92 -76
-92 -14 0 -9 89 7 128 18 43 53 82 72 82 9 0 13 -14 13 -40z m53 -27 c0 -52
-11 -83 -30 -83 -11 0 -13 5 -8 18 4 9 10 41 13 70 5 62 25 57 25 -5z m67 -98
c16 -8 34 -24 40 -34 14 -26 13 -74 -2 -89 -26 -26 -100 -3 -126 39 -10 16 -9
19 6 19 27 0 56 35 49 60 -6 24 -4 24 33 5z m-412 -17 c15 -15 16 -87 2 -123
-9 -24 -14 -26 -45 -21 -26 5 -44 1 -73 -15 -65 -38 -122 -1 -122 80 0 47 38
71 104 64 41 -4 60 -2 77 11 28 19 41 20 57 4z m302 -93 c10 -12 10 -15 -4
-15 -9 0 -16 7 -16 15 0 8 2 15 4 15 2 0 9 -7 16 -15z m-160 -5 c17 -11 14
-15 -23 -24 -26 -6 -27 -5 -15 14 14 23 17 23 38 10z m75 -47 c-71 -32 -88
-29 -24 6 30 15 58 26 64 23 5 -3 -13 -16 -40 -29z m150 5 c21 -9 35 -28 21
-28 -16 0 -56 21 -56 30 0 13 3 13 35 -2z m-932 -36 c-23 -9 -53 -27 -67 -39
-23 -20 -36 -21 -36 -2 0 10 52 38 90 50 47 14 55 8 13 -9z m381 -64 c16 -23
22 -68 9 -68 -5 1 -23 21 -41 45 l-33 45 25 0 c14 0 31 -9 40 -22z m74 10 c-7
-19 -35 -21 -41 -3 -5 11 0 15 19 15 16 0 24 -5 22 -12z m-578 -17 c0 -5 16
-30 35 -55 36 -48 35 -57 -3 -30 -35 24 -66 94 -42 94 6 0 10 -4 10 -9z m617
-38 c-4 -17 -4 -17 -12 0 -4 9 -4 25 0 35 8 16 8 16 12 0 3 -10 3 -26 0 -35z
m-609 -63 c17 -21 32 -39 32 -41 0 -2 -25 -4 -55 -4 -39 0 -59 5 -65 15 -16
25 -11 58 13 80 20 20 23 20 32 4 6 -10 25 -34 43 -54z m579 35 c15 -32 15
-39 2 -82 l-15 -48 -21 47 c-18 39 -20 54 -12 83 12 44 25 44 46 0z m-732 -50
c-15 -14 -29 -24 -32 -21 -3 3 7 17 22 31 14 15 28 25 31 22 3 -3 -7 -17 -21
-32z m360 -2 c-3 -15 -15 -39 -26 -54 -10 -15 -19 -34 -19 -42 0 -18 -50 -63
-81 -72 -14 -5 -27 -1 -39 11 -18 18 -18 21 9 80 24 51 35 64 72 82 24 11 55
21 68 22 20 0 22 -3 16 -27z m-338 -90 c73 -49 133 -94 133 -101 0 -15 -54
-97 -70 -107 -12 -7 -72 33 -66 44 8 12 -7 26 -72 70 -45 30 -67 40 -75 32 -9
-7 -22 -3 -45 15 l-32 25 37 55 c20 29 41 54 47 54 5 0 70 -39 143 -87z m123
-19 c-22 -25 -28 -15 -11 20 13 26 17 29 19 14 2 -11 -2 -26 -8 -34z m-302
-87 c6 -24 115 -97 144 -97 13 0 35 -10 51 -23 l28 -22 -27 -37 c-15 -21 -31
-38 -36 -38 -17 0 -273 181 -273 193 0 7 6 11 13 9 8 -1 11 2 7 8 -4 6 1 22
10 36 16 24 16 24 47 7 17 -10 33 -26 36 -36z m543 -34 c77 -141 87 -153 129
-153 20 0 72 9 116 20 l79 21 15 -23 c40 -59 46 -63 76 -50 l29 12 -30 -25
c-35 -29 -117 -62 -189 -76 -27 -5 -124 -9 -216 -9 -188 0 -257 -14 -340 -70
l-45 -30 -3 33 c-4 41 12 113 24 110 5 -1 21 -4 35 -8 25 -6 28 -3 78 122 l53
128 71 36 c40 20 73 37 74 38 0 1 20 -34 44 -76z m-445 15 c38 -27 55 -48 39
-48 -10 0 -105 65 -105 73 0 15 23 6 66 -25z m162 -156 c-28 -63 -48 -86 -50
-58 -1 9 75 136 79 132 2 -1 -11 -35 -29 -74z"/>
<path d="M2835 3436 c-14 -14 -25 -30 -25 -36 0 -17 25 -11 38 10 14 22 42 26
60 8 16 -16 29 -1 16 20 -18 28 -60 27 -89 -2z"/>
<path d="M2517 3373 c-15 -15 -5 -25 19 -19 17 5 41 0 70 -15 54 -26 70 -17
31 17 -20 17 -40 24 -71 24 -23 0 -46 -3 -49 -7z"/>
<path d="M2856 3355 c-12 -12 -14 -28 -9 -63 7 -56 18 -72 47 -72 32 0 46 19
46 65 0 70 -46 108 -84 70z m34 -30 c0 -8 -7 -15 -15 -15 -8 0 -15 7 -15 15 0
8 7 15 15 15 8 0 15 -7 15 -15z"/>
<path d="M2548 3269 c-10 -5 -18 -17 -18 -24 0 -17 16 -20 25 -5 9 15 51 12
65 -5 14 -17 40 -20 40 -6 0 16 -51 51 -74 51 -11 0 -29 -5 -38 -11z"/>
<path d="M2805 3131 c-8 -26 -41 -27 -67 -4 -29 26 -46 1 -19 -26 36 -36 105
-22 113 23 4 26 -19 32 -27 7z"/>
<path d="M1815 2137 c-22 -18 -27 -32 -28 -75 -1 -29 -5 -52 -10 -52 -4 0 -21
7 -39 16 -45 23 -136 22 -187 -3 l-41 -20 0 42 c0 28 -7 51 -21 69 -18 23 -28
26 -78 26 -89 0 -95 -10 -99 -182 -4 -123 -6 -139 -20 -136 -13 3 -16 13 -14
45 5 57 -25 88 -76 80 -71 -12 -123 -99 -103 -174 23 -85 92 -132 192 -133 65
0 112 17 153 55 l28 26 27 -25 c77 -74 228 -73 295 2 l19 21 40 -34 c107 -92
271 -60 335 65 12 24 22 39 22 32 0 -7 22 -35 48 -61 88 -88 220 -106 321 -44
l46 29 49 -30 c64 -40 152 -47 219 -18 39 17 48 18 58 6 19 -23 114 -19 140 7
l21 21 21 -20 c20 -18 35 -21 140 -21 103 0 120 2 134 19 15 18 17 18 57 -3
31 -17 59 -22 111 -22 83 0 135 22 164 69 25 41 38 161 22 209 -13 39 -67 92
-110 109 -47 18 -135 13 -182 -10 -24 -12 -44 -20 -46 -18 -2 2 1 16 7 31 13
35 -3 89 -33 110 -12 8 -40 15 -64 15 -77 0 -117 -61 -89 -139 l8 -24 -35 21
c-71 45 -164 38 -228 -15 l-30 -25 -37 25 c-50 35 -114 48 -175 36 -51 -9 -62
-15 -109 -58 -33 -29 -47 -22 -24 13 33 51 19 98 -38 129 -33 17 -58 22 -126
22 -74 0 -91 -3 -130 -27 -57 -33 -86 -65 -115 -124 l-23 -47 -17 27 c-24 36
-87 67 -140 69 -42 2 -43 3 -49 39 -12 72 -104 104 -161 55z m106 -48 c6 -11
9 -45 7 -75 -1 -30 -2 -54 0 -54 1 0 14 7 28 16 33 22 94 21 133 -2 46 -27 75
-93 67 -152 -8 -61 -31 -91 -89 -121 -54 -27 -110 -24 -164 9 -56 33 -64 63
-64 230 0 82 2 154 6 160 12 19 64 11 76 -11z m1459 1 c7 -14 8 -26 0 -39 -24
-45 -90 -32 -90 18 0 36 6 41 46 41 23 0 37 -6 44 -20z m-827 -10 c31 -15 35
-40 8 -64 -14 -13 -24 -14 -45 -6 -41 15 -103 12 -132 -6 -76 -51 -71 -179 10
-218 46 -22 78 -20 110 5 32 25 33 42 5 70 -17 17 -29 20 -60 15 -44 -7 -50 4
-24 41 22 31 78 40 121 20 72 -35 86 -145 25 -199 -84 -75 -232 -52 -301 49
-28 41 -38 124 -21 176 16 46 78 110 122 125 41 14 144 9 182 -8z m-1095 -105
c4 -135 -9 -203 -46 -237 -40 -38 -65 -48 -119 -48 -99 0 -168 70 -143 145 12
38 52 71 70 60 6 -4 8 -20 4 -40 -11 -58 53 -103 106 -75 29 16 40 66 40 192
l0 119 43 -3 42 -3 3 -110z m283 -10 c118 -76 70 -256 -74 -272 -59 -7 -110
11 -145 52 -42 47 -50 103 -22 159 44 92 151 119 241 61z m1094 24 c49 -13 91
-51 106 -96 19 -59 12 -63 -111 -63 -116 0 -132 -7 -92 -43 39 -35 139 -29
161 10 11 21 31 7 31 -22 0 -50 -85 -93 -159 -80 -47 8 -95 36 -117 70 -24 37
-21 116 6 160 27 43 55 59 130 74 3 0 23 -4 45 -10z m344 -9 c57 -29 72 -69
69 -182 l-3 -93 -34 -3 c-20 -2 -37 2 -42 10 -5 7 -9 51 -9 99 0 90 -8 109
-46 109 -40 0 -54 -35 -54 -132 l0 -88 -40 0 -40 0 0 103 c0 85 3 108 20 135
36 59 111 77 179 42z m474 -7 c36 -18 67 -69 67 -110 l0 -33 -114 0 c-110 0
-114 -1 -109 -20 14 -53 121 -64 170 -19 20 20 25 21 33 9 39 -62 -68 -124
-171 -100 -113 27 -154 151 -79 242 46 55 130 68 203 31z m-278 -128 l0 -140
-40 0 -40 0 -3 129 c-1 72 0 136 3 144 3 9 18 12 42 10 l38 -3 0 -140z"/>
<path d="M1949 1903 c-40 -46 -29 -112 23 -134 43 -18 80 4 92 54 8 31 6 42
-11 65 -25 34 -81 42 -104 15z"/>
<path d="M1591 1894 c-44 -56 -14 -128 54 -128 46 0 75 31 75 78 0 69 -88 103
-129 50z"/>
<path d="M2740 1908 l-25 -23 69 -3 c38 -2 71 0 75 3 11 12 -40 45 -68 45 -15
0 -38 -10 -51 -22z"/>
<path d="M3522 1914 c-37 -26 -25 -34 48 -34 39 0 70 4 70 9 0 16 -43 41 -70
41 -14 0 -36 -7 -48 -16z"/>
</g>
</svg>
