<?xml version="1.0" standalone="no"?>
<!DOCTYPE svg PUBLIC "-//W3C//DTD SVG 20010904//EN"
 "http://www.w3.org/TR/2001/REC-SVG-20010904/DTD/svg10.dtd">
<svg version="1.0" xmlns="http://www.w3.org/2000/svg"
 width="121.000000pt" height="121.000000pt" viewBox="0 0 121.000000 121.000000"
 preserveAspectRatio="xMidYMid meet">
<metadata>
Created by potrace 1.14, written by Peter Selinger 2001-2017
</metadata>
<g transform="translate(0.000000,121.000000) scale(0.100000,-0.100000)"
fill="#000000" stroke="none">
<path d="M534 977 c-43 -40 -47 -47 -52 -99 -4 -54 -3 -57 38 -102 l42 -46
-33 -17 c-58 -31 -115 -96 -127 -146 -7 -25 -12 -52 -12 -60 0 -33 269 -50
407 -26 57 10 63 13 63 36 0 13 -9 46 -21 73 -19 44 -54 79 -138 137 -3 2 5
13 16 26 33 36 43 63 43 114 0 84 -45 133 -137 147 -38 6 -44 3 -89 -37z"/>
<path d="M300 933 c-70 -26 -89 -122 -35 -177 16 -15 13 -20 -39 -69 -48 -45
-56 -58 -56 -89 0 -34 3 -38 38 -47 20 -6 65 -11 100 -11 56 0 62 2 62 20 0
25 25 77 51 106 19 20 19 21 -5 43 l-24 23 19 32 c23 37 25 103 4 133 -9 12
-32 27 -53 33 -41 11 -40 11 -62 3z"/>
<path d="M856 909 c-33 -39 -36 -113 -6 -151 l19 -25 -24 -23 -23 -22 28 -56
c16 -32 32 -65 34 -74 4 -15 17 -18 68 -18 35 0 80 5 101 11 32 9 37 14 37 41
0 30 -34 98 -49 98 -5 0 -20 9 -35 21 l-26 21 20 25 c22 29 27 101 9 135 -12
22 -66 48 -103 48 -15 0 -34 -12 -50 -31z"/>
<path d="M230 470 c0 -15 -7 -20 -25 -20 -14 0 -25 -4 -25 -10 0 -5 5 -10 10
-10 6 0 10 -11 10 -25 0 -22 3 -25 25 -19 15 4 32 1 41 -7 13 -11 14 -9 9 13
-4 15 -2 29 4 32 16 10 13 26 -5 26 -9 0 -18 9 -21 20 -3 11 -9 20 -14 20 -5
0 -9 -9 -9 -20z"/>
<path d="M997 459 c-15 -16 -23 -30 -17 -34 6 -3 7 -17 4 -31 -6 -24 9 -34 21
-14 3 6 17 7 31 4 20 -5 24 -3 24 18 0 13 5 29 12 36 9 9 6 12 -14 12 -18 0
-28 6 -30 19 -3 16 -6 15 -31 -10z"/>
<path d="M419 424 c-8 -17 -24 -30 -37 -32 -25 -4 -28 -14 -8 -31 10 -9 13
-23 9 -49 l-6 -36 28 22 28 22 25 -22 25 -23 -7 34 c-5 27 -2 39 16 58 l21 23
-27 0 c-21 0 -30 7 -40 32 l-13 31 -14 -29z"/>
<path d="M813 420 c-9 -23 -17 -30 -39 -30 l-27 0 20 -22 c15 -16 20 -31 16
-50 -6 -30 7 -37 27 -13 11 13 15 13 41 0 l29 -15 -6 29 c-5 22 -1 34 15 48
l22 18 -28 5 c-15 3 -33 15 -39 28 -17 34 -19 34 -31 2z"/>
<path d="M605 378 c-9 -28 -15 -34 -48 -38 l-39 -5 30 -22 c28 -21 30 -25 19
-52 -14 -37 -4 -50 21 -28 10 10 27 17 37 17 10 0 27 -7 37 -17 24 -21 33 -11
20 24 -8 24 -6 32 16 56 l26 27 -32 0 c-27 0 -34 5 -46 35 -19 44 -29 44 -41
3z"/>
</g>
</svg>
