<?xml version="1.0" encoding="UTF-8"?>
<svg version="1.1" xmlns="http://www.w3.org/2000/svg" width="385" height="322">
<path d="M0 0 C127.05 0 254.1 0 385 0 C385 106.26 385 212.52 385 322 C257.95 322 130.9 322 0 322 C0 215.74 0 109.48 0 0 Z " fill="#FEFEFE" transform="translate(0,0)"/>
<path d="M0 0 C15.03961816 -0.32404754 26.90264687 4.23411264 38.89453125 13.30859375 C49.2387502 21.05172276 58.6652335 22.49089249 71.41943359 20.82373047 C82.56990976 19.1109325 93.23701334 16.05364516 103.89868164 12.40795898 C105.20953735 11.96432007 105.20953735 11.96432007 106.546875 11.51171875 C107.31507568 11.24391602 108.08327637 10.97611328 108.87475586 10.70019531 C111.44063846 10.04554612 113.50795485 9.8496975 116.14453125 10.12109375 C118.04799776 12.10839973 119.44996252 13.8592874 120.95703125 16.12109375 C121.3864502 16.74685303 121.81586914 17.3726123 122.25830078 18.01733398 C137.82915405 41.31600807 143.53441532 67.42824113 138.14453125 95.12109375 C134.85405277 110.32656797 128.02089748 124.1169646 118.14453125 136.12109375 C117.33371094 137.10722656 116.52289063 138.09335938 115.6875 139.109375 C100.06651442 157.41439873 76.26042216 170.08820838 52.22314453 172.40234375 C24.22195103 173.90148745 -2.26968419 166.41194291 -23.49316406 147.67529297 C-31.84915191 140.09282808 -38.43805202 132.01554543 -43.85546875 122.12109375 C-44.21511719 121.46625 -44.57476562 120.81140625 -44.9453125 120.13671875 C-56.64300786 98.32322277 -60.27162304 72.03242782 -53.18359375 48.01171875 C-49.54315948 36.93359724 -44.6650012 26.61274816 -37.85546875 17.12109375 C-37.16195312 16.06535156 -36.4684375 15.00960937 -35.75390625 13.921875 C-29.9885775 5.9294711 -25.01267145 3.27278501 -15.6171875 1.65625 C-14.37582031 1.47964844 -13.13445312 1.30304687 -11.85546875 1.12109375 C-10.56576172 0.90259766 -10.56576172 0.90259766 -9.25 0.6796875 C-6.16768575 0.23614866 -3.10943209 0.13186374 0 0 Z " fill="#B71641" transform="translate(150.85546875,20.87890625)"/>
<path d="M0 0 C15.03961816 -0.32404754 26.90264687 4.23411264 38.89453125 13.30859375 C49.2387502 21.05172276 58.6652335 22.49089249 71.41943359 20.82373047 C82.56990976 19.1109325 93.23701334 16.05364516 103.89868164 12.40795898 C105.20953735 11.96432007 105.20953735 11.96432007 106.546875 11.51171875 C107.31507568 11.24391602 108.08327637 10.97611328 108.87475586 10.70019531 C111.44063846 10.04554612 113.50795485 9.8496975 116.14453125 10.12109375 C118.04799776 12.10839973 119.44996252 13.8592874 120.95703125 16.12109375 C121.3864502 16.74685303 121.81586914 17.3726123 122.25830078 18.01733398 C129.51412013 28.87421943 134.9747217 40.42394701 138.14453125 53.12109375 C138.34175781 53.88035156 138.53898438 54.63960937 138.7421875 55.421875 C139.32352745 59.32193233 139.22169708 63.18563619 139.14453125 67.12109375 C128.87250615 73.03655536 118.43404568 78.60399102 107.85308838 83.94406128 C106.56663186 84.5940247 105.28154807 85.24671368 103.99798584 85.90237427 C87.75100635 94.18744617 71.20442035 101.48556116 52.73828125 96.48828125 C43.02551337 92.79320651 34.07679351 87.06034179 25.16796875 81.76171875 C6.96086011 70.9829132 -12.25798537 68.19545383 -32.77929688 73.33764648 C-38.45838621 74.87450654 -43.89174313 76.88823691 -49.31640625 79.16796875 C-51.85546875 80.12109375 -51.85546875 80.12109375 -54.85546875 80.12109375 C-54.85546875 82.43109375 -54.85546875 84.74109375 -54.85546875 87.12109375 C-55.18546875 87.12109375 -55.51546875 87.12109375 -55.85546875 87.12109375 C-56.64538259 60.7774672 -53.5174433 38.95196848 -37.85546875 17.12109375 C-37.16195312 16.06535156 -36.4684375 15.00960937 -35.75390625 13.921875 C-29.9885775 5.9294711 -25.01267145 3.27278501 -15.6171875 1.65625 C-14.37582031 1.47964844 -13.13445312 1.30304687 -11.85546875 1.12109375 C-10.56576172 0.90259766 -10.56576172 0.90259766 -9.25 0.6796875 C-6.16768575 0.23614866 -3.10943209 0.13186374 0 0 Z " fill="#CF6280" transform="translate(150.85546875,20.87890625)"/>
<path d="M0 0 C0.53051744 19.39335963 -2.59999044 36.8919826 -12 54 C-12.33 53.34 -12.66 52.68 -13 52 C-14.72713129 52.32142642 -16.45422646 52.64304798 -18.18115234 52.96557617 C-19.65264303 53.24019112 -21.12432568 53.51377927 -22.59619141 53.78637695 C-26.54003425 54.52101434 -30.45891189 55.31516627 -34.375 56.1875 C-43.68392133 57.99135186 -50.46394675 56.98392692 -59 52.9375 C-60.83746657 52.10958894 -62.6760304 51.2841093 -64.515625 50.4609375 C-65.43021484 50.04682617 -66.34480469 49.63271484 -67.28710938 49.20605469 C-71.39801287 47.3784932 -75.56096633 45.70151285 -79.75 44.0625 C-80.45125 43.78075928 -81.1525 43.49901855 -81.875 43.20874023 C-96.78321208 37.39233259 -113.02661965 36.59378303 -127.88916016 43.02783203 C-139.94617029 48.58080616 -151.4968161 55.10907919 -162.80078125 62.05078125 C-166.80266519 64.48904753 -170.87601112 66.77595179 -175 69 C-186.89143579 51.63079634 -195.93966088 34.57739797 -195 13 C-169.25955338 2.98372813 -147.02322009 -1.27381004 -121 10 C-116.5050789 12.36063254 -112.15844646 14.93945694 -107.8125 17.5625 C-93.38050797 26.23186456 -80.51018922 32.73238566 -63.375 28.9375 C-50.07631757 25.24527787 -37.80714173 18.49390129 -25.5 12.375 C-24.51583099 11.8870697 -24.51583099 11.8870697 -23.51177979 11.38928223 C-14.71578513 7.04112425 -14.71578513 7.04112425 -6.28125 2.0390625 C-3 0 -3 0 0 0 Z " fill="#C13358" transform="translate(291,88)"/>
<path d="M0 0 C15.03961816 -0.32404754 26.90264687 4.23411264 38.89453125 13.30859375 C49.2387502 21.05172276 58.6652335 22.49089249 71.41943359 20.82373047 C82.56990976 19.1109325 93.23701334 16.05364516 103.89868164 12.40795898 C105.20953735 11.96432007 105.20953735 11.96432007 106.546875 11.51171875 C107.31507568 11.24391602 108.08327637 10.97611328 108.87475586 10.70019531 C111.44063846 10.04554612 113.50795485 9.8496975 116.14453125 10.12109375 C118.04799776 12.10839973 119.44996252 13.8592874 120.95703125 16.12109375 C121.3864502 16.74685303 121.81586914 17.3726123 122.25830078 18.01733398 C129.51412013 28.87421943 134.9747217 40.42394701 138.14453125 53.12109375 C138.34175781 53.88035156 138.53898438 54.63960937 138.7421875 55.421875 C139.32352745 59.32193233 139.22169708 63.18563619 139.14453125 67.12109375 C114.92521589 68.1198284 97.19661818 60.74637225 78.14453125 46.12109375 C60.9717957 33.15302283 44.66723749 28.40266787 23.14453125 30.12109375 C10.47033935 32.16884126 -0.78321117 39.69809312 -11.23046875 46.74609375 C-23.07836352 54.36135847 -40.75539263 60.68509679 -54.85546875 60.12109375 C-53.89390316 41.85134758 -44.67163539 24.68256245 -32.85546875 11.12109375 C-31.73978516 9.57035156 -31.73978516 9.57035156 -30.6015625 7.98828125 C-27.3629652 4.60687241 -24.54806252 3.69126973 -20.10546875 2.80859375 C-19.39100586 2.65036133 -18.67654297 2.49212891 -17.94042969 2.32910156 C-11.9457567 1.03966076 -6.12382102 0.25969692 0 0 Z " fill="#DF96AA" transform="translate(150.85546875,20.87890625)"/>
<path d="M0 0 C1.51157936 -0.00430527 1.51157936 -0.00430527 3.05369568 -0.00869751 C5.16885953 -0.01072532 7.28404269 -0.00528603 9.39916992 0.00732422 C12.61615302 0.02341279 15.83188318 0.00742243 19.04882812 -0.01171875 C21.11588816 -0.00973642 23.18294742 -0.00589296 25.25 0 C26.67536827 -0.00910904 26.67536827 -0.00910904 28.12953186 -0.0184021 C34.29868339 0.045846 39.33682929 1.11658789 45.05859375 3.3984375 C46.07566406 3.77484375 47.09273438 4.15125 48.140625 4.5390625 C62.8293239 10.50700311 75.17889683 18.87028183 86.05859375 30.3984375 C68.96411034 39.53818711 41.75017938 46.7116545 22.4609375 42.8828125 C15.98563977 40.67753581 10.62492457 36.40651848 5.10205078 32.48168945 C-11.03988125 21.16323415 -27.05742974 21.08310117 -45.94140625 24.3984375 C-48.9626 25.00349389 -51.94553059 25.6752951 -54.94140625 26.3984375 C-43.21128451 10.04735872 -19.65619925 -0.12588418 0 0 Z " fill="#F0CFD8" transform="translate(179.94140625,-0.3984375)"/>
<path d="M0 0 C8.58 0 17.16 0 26 0 C30.59458364 9.02007728 34.9179793 18.08119501 38.91748047 27.37915039 C39.75818621 29.33151074 40.60722918 31.28009995 41.45703125 33.22851562 C44.27946211 39.7370906 46.90015376 46.21986267 49 53 C49.99 53 50.98 53 52 53 C52 38.81 52 24.62 52 10 C49.69 10 47.38 10 45 10 C45 6.7 45 3.4 45 0 C52.92 0 60.84 0 69 0 C69 3.3 69 6.6 69 10 C66.69 10 64.38 10 62 10 C62 24.19 62 38.38 62 53 C64.31 53 66.62 53 69 53 C69 56.63 69 60.26 69 64 C60.42 64 51.84 64 43 64 C38.00812872 52.95241602 33.04013915 41.8944597 28.125 30.8125 C27.6611792 29.77488525 27.1973584 28.73727051 26.71948242 27.66821289 C24.1485586 21.85252494 21.90298256 16.06811989 20 10 C19.01 10 18.02 10 17 10 C17 24.19 17 38.38 17 53 C19.31 53 21.62 53 24 53 C24 56.63 24 60.26 24 64 C16.08 64 8.16 64 0 64 C0 60.37 0 56.74 0 53 C2.31 53 4.62 53 7 53 C7 38.81 7 24.62 7 10 C4.69 10 2.38 10 0 10 C0 6.7 0 3.4 0 0 Z " fill="#0D92E4" transform="translate(179,223)"/>
<path d="M0 0 C19.8 0 39.6 0 60 0 C60 5.94 60 11.88 60 18 C56.7 18 53.4 18 50 18 C50 15.36 50 12.72 50 10 C39.11 10 28.22 10 17 10 C17 14.95 17 19.9 17 25 C25.91 25 34.82 25 44 25 C44 28.3 44 31.6 44 35 C35.09 35 26.18 35 17 35 C17 40.94 17 46.88 17 53 C27.89 53 38.78 53 50 53 C50 51.02 50 49.04 50 47 C50.495 46.01 50.495 46.01 51 45 C54.3 45 57.6 45 61 45 C61 51.27 61 57.54 61 64 C40.87 64 20.74 64 0 64 C0 60.37 0 56.74 0 53 C2.31 53 4.62 53 7 53 C7 38.81 7 24.62 7 10 C4.69 10 2.38 10 0 10 C0 6.7 0 3.4 0 0 Z " fill="#1092E3" transform="translate(282,223)"/>
<path d="M0 0 C19.8 0 39.6 0 60 0 C60 5.94 60 11.88 60 18 C56.7 18 53.4 18 50 18 C50 15.36 50 12.72 50 10 C39.11 10 28.22 10 17 10 C17 14.95 17 19.9 17 25 C25.91 25 34.82 25 44 25 C44 28.3 44 31.6 44 35 C35.09 35 26.18 35 17 35 C17 40.94 17 46.88 17 53 C28.22 53 39.44 53 51 53 C51 50.36 51 47.72 51 45 C54.3 45 57.6 45 61 45 C61 51.27 61 57.54 61 64 C40.87 64 20.74 64 0 64 C0 60.37 0 56.74 0 53 C2.31 53 4.62 53 7 53 C7 38.81 7 24.62 7 10 C4.69 10 2.38 10 0 10 C0 6.7 0 3.4 0 0 Z " fill="#0E92E4" transform="translate(113,223)"/>
<path d="M0 0 C0.76183594 0.35964844 1.52367187 0.71929687 2.30859375 1.08984375 C4.22425643 2.02277479 6.11519852 3.00619558 8 4 C8 7.96 8 11.92 8 16 C4.7 16 1.4 16 -2 16 C-2 14.35 -2 12.7 -2 11 C-7.42116571 9.20014419 -12.23960475 8.6346167 -17.9375 8.625 C-19.07735352 8.58826172 -19.07735352 8.58826172 -20.24023438 8.55078125 C-26.49861145 8.51871442 -31.89488952 10.06280026 -36.53051758 14.44775391 C-41.45362552 20.13163265 -42.52984592 24.42326065 -42.3671875 31.82421875 C-41.77535144 36.94297102 -40.21765241 40.96129146 -37 45 C-29.90559349 50.39224593 -22.76111604 51.84713081 -14 51 C-7.52701466 49.42477986 -7.52701466 49.42477986 -2 46 C-1.505 41.05 -1.505 41.05 -1 36 C-9.58 36 -18.16 36 -27 36 C-27 32.37 -27 28.74 -27 25 C-14.79 25 -2.58 25 10 25 C10.165 28.980625 10.33 32.96125 10.5 37.0625 C10.57283203 38.30394775 10.64566406 39.54539551 10.72070312 40.82446289 C10.88030885 48.79380821 10.88030885 48.79380821 8.33081055 52.28710938 C-1.87968227 61.39264243 -12.74248252 62.76093801 -25.98242188 62.16601562 C-35.18319046 61.40893399 -42.10329585 55.74777486 -48 49 C-54.10113555 40.51674778 -55.31434054 32.27260898 -54 22 C-52.259914 14.74964165 -47.59425693 8.80151199 -42 4 C-29.60759235 -3.4919879 -13.57048217 -6.65984648 0 0 Z " fill="#1394E4" transform="translate(97,225)"/>
<path d="M0 0 C7.92 0 15.84 0 24 0 C24 3.3 24 6.6 24 10 C21.69 10 19.38 10 17 10 C17 24.19 17 38.38 17 53 C19.31 53 21.62 53 24 53 C24 56.63 24 60.26 24 64 C16.08 64 8.16 64 0 64 C0 60.37 0 56.74 0 53 C1.98 53 3.96 53 6 53 C6 38.81 6 24.62 6 10 C4.02 10 2.04 10 0 10 C0 6.7 0 3.4 0 0 Z " fill="#1493E3" transform="translate(253,223)"/>
</svg>
