<?xml version="1.0" encoding="UTF-8"?>
<!DOCTYPE svg PUBLIC "-//W3C//DTD SVG 1.1//EN" "http://www.w3.org/Graphics/SVG/1.1/DTD/svg11.dtd">
<svg xmlns="http://www.w3.org/2000/svg" version="1.1" width="521px" height="270px" style="shape-rendering:geometricPrecision; text-rendering:geometricPrecision; image-rendering:optimizeQuality; fill-rule:evenodd; clip-rule:evenodd" xmlns:xlink="http://www.w3.org/1999/xlink">
<g><path style="opacity:1" fill="#fefefe" d="M -0.5,-0.5 C 173.167,-0.5 346.833,-0.5 520.5,-0.5C 520.5,89.5 520.5,179.5 520.5,269.5C 346.833,269.5 173.167,269.5 -0.5,269.5C -0.5,179.5 -0.5,89.5 -0.5,-0.5 Z"/></g>
<g><path style="opacity:1" fill="#1a1a1a" d="M 386.5,76.5 C 392.653,76.4837 395.486,79.4837 395,85.5C 391.61,89.0324 387.943,89.3658 384,86.5C 382.861,82.5789 383.695,79.2456 386.5,76.5 Z"/></g>
<g><path style="opacity:1" fill="#563c3c" d="M 111.5,91.5 C 126.91,91.0716 133.744,98.405 132,113.5C 130.585,117.852 128.085,121.352 124.5,124C 129.205,127.014 133.705,130.514 138,134.5C 141.772,139.513 143.605,145.18 143.5,151.5C 125.504,155.477 107.504,155.477 89.5,151.5C 89.6293,138.537 95.796,129.871 108,125.5C 108.667,124.5 108.667,123.5 108,122.5C 99.3044,116.664 97.3044,108.998 102,99.5C 104.772,96.2166 107.939,93.5499 111.5,91.5 Z"/></g>
<g><path style="opacity:1" fill="#573d3d" d="M 80.5,100.5 C 91.375,100.537 95.875,105.871 94,116.5C 92.8706,119.265 91.3706,121.765 89.5,124C 91.4679,125.658 93.4679,127.325 95.5,129C 90.2479,133.671 87.2479,139.504 86.5,146.5C 79.043,146.767 71.7096,145.934 64.5,144C 63.2916,140.35 63.7916,136.85 66,133.5C 69.4154,129.578 73.2487,126.244 77.5,123.5C 72.0041,119.493 70.1708,114.16 72,107.5C 73.8507,103.843 76.6841,101.51 80.5,100.5 Z"/></g>
<g><path style="opacity:1" fill="#563d3d" d="M 146.5,100.5 C 158.393,99.5572 163.56,104.891 162,116.5C 161.089,119.576 159.256,121.909 156.5,123.5C 158.8,125.781 161.466,127.614 164.5,129C 168.547,132.973 170.547,137.806 170.5,143.5C 162.699,145.922 154.699,146.922 146.5,146.5C 145.722,139.944 143.056,134.278 138.5,129.5C 140.302,127.435 142.302,125.602 144.5,124C 139.979,119.396 138.479,113.896 140,107.5C 141.694,104.642 143.861,102.309 146.5,100.5 Z"/></g>
<g><path style="opacity:1" fill="#161616" d="M 214.5,108.5 C 225.088,108.642 235.588,109.309 246,110.5C 246.667,112.5 246.667,114.5 246,116.5C 244.053,117.11 242.219,117.943 240.5,119C 247.442,131.881 245.442,143.215 234.5,153C 225.712,156.142 216.878,156.309 208,153.5C 202.632,154.287 202.132,156.454 206.5,160C 216.8,161.786 227.133,163.452 237.5,165C 250.081,168.667 253.581,176.5 248,188.5C 246.859,190.609 245.359,192.442 243.5,194C 232.501,199.347 220.834,201.013 208.5,199C 197.582,195.384 193.415,187.884 196,176.5C 198.205,173.96 200.705,171.793 203.5,170C 195.016,167.541 191.516,162.041 193,153.5C 195.445,150.36 198.612,148.36 202.5,147.5C 192.042,129.882 196.042,116.882 214.5,108.5 Z"/></g>
<g><path style="opacity:1" fill="#151515" d="M 426.5,108.5 C 442.166,106.683 453,113.016 459,127.5C 460.151,131.829 459.318,135.662 456.5,139C 444.153,139.167 431.82,139.667 419.5,140.5C 420.543,145.686 423.543,149.186 428.5,151C 437.062,152.752 444.895,151.252 452,146.5C 454.927,148.07 455.927,150.404 455,153.5C 446.058,162.092 435.558,164.592 423.5,161C 406.888,150.82 403.055,136.986 412,119.5C 415.915,114.477 420.749,110.81 426.5,108.5 Z"/></g>
<g><path style="opacity:1" fill="#161616" d="M 276.5,108.5 C 297.088,106.936 307.588,116.269 308,136.5C 307.626,137.416 307.126,138.25 306.5,139C 294.171,139.5 281.838,139.667 269.5,139.5C 269.95,144.797 272.617,148.631 277.5,151C 286.223,152.8 294.223,151.3 301.5,146.5C 303.543,147.579 304.876,149.246 305.5,151.5C 297.138,162.006 286.471,165.173 273.5,161C 258.851,153.408 253.685,141.574 258,125.5C 261.833,117.162 268,111.495 276.5,108.5 Z"/></g>
<g><path style="opacity:1" fill="#191919" d="M 340.5,108.5 C 353.929,106.295 363.429,111.295 369,123.5C 369.5,136.496 369.667,149.496 369.5,162.5C 366.482,162.665 363.482,162.498 360.5,162C 359.692,161.692 359.025,161.192 358.5,160.5C 357.687,148.879 357.187,137.213 357,125.5C 353.155,119.333 347.655,117.166 340.5,119C 337.166,120.331 334.166,122.165 331.5,124.5C 330.667,136.486 330.167,148.486 330,160.5C 326.558,162.733 322.892,163.067 319,161.5C 318.333,144.5 318.333,127.5 319,110.5C 323.896,108.548 328.063,109.548 331.5,113.5C 334.724,112.059 337.724,110.392 340.5,108.5 Z"/></g>
<g><path style="opacity:1" fill="#191919" d="M 383.5,109.5 C 387.437,109.207 391.27,109.54 395,110.5C 395.825,127.741 395.658,144.907 394.5,162C 391.5,162.667 388.5,162.667 385.5,162C 384.874,161.25 384.374,160.416 384,159.5C 383.5,142.837 383.333,126.17 383.5,109.5 Z"/></g>
<g><path style="opacity:1" fill="#f9f9f9" d="M 216.5,119.5 C 228.67,118.836 234.17,124.502 233,136.5C 232.31,139.196 230.81,141.363 228.5,143C 214.424,147.222 207.924,142.055 209,127.5C 210.69,123.979 213.19,121.312 216.5,119.5 Z"/></g>
<g><path style="opacity:1" fill="#f5f5f5" d="M 277.5,119.5 C 286.599,117.88 292.932,121.213 296.5,129.5C 287.525,130.498 278.525,130.832 269.5,130.5C 269.372,128.345 269.872,126.345 271,124.5C 273.326,122.934 275.492,121.268 277.5,119.5 Z"/></g>
<g><path style="opacity:1" fill="#f5f5f5" d="M 427.5,119.5 C 432.742,119.023 437.742,119.856 442.5,122C 445.011,124.326 446.344,127.159 446.5,130.5C 437.5,130.5 428.5,130.5 419.5,130.5C 419.491,128.692 419.991,127.025 421,125.5C 423.063,123.266 425.229,121.266 427.5,119.5 Z"/></g>
<g><path style="opacity:1" fill="#5f4646" d="M 71.5,150.5 C 73.0108,151.958 74.0108,153.791 74.5,156C 76.1667,156.333 77.8333,156.667 79.5,157C 78.1322,158.34 76.7989,159.674 75.5,161C 76.5038,162.798 77.0038,164.632 77,166.5C 74.1531,162.181 71.1531,161.848 68,165.5C 68,163.5 68,161.5 68,159.5C 66.7453,158.789 65.5786,157.956 64.5,157C 66.4727,156.505 68.4727,156.338 70.5,156.5C 70.8333,154.5 71.1667,152.5 71.5,150.5 Z"/></g>
<g><path style="opacity:1" fill="#5d4444" d="M 161.5,150.5 C 162.738,152.214 163.405,154.214 163.5,156.5C 165.527,156.338 167.527,156.505 169.5,157C 168.421,157.956 167.255,158.789 166,159.5C 166,161.5 166,163.5 166,165.5C 164.414,164.624 162.914,163.624 161.5,162.5C 156.362,168.23 155.362,167.563 158.5,160.5C 157.019,159.52 155.685,158.353 154.5,157C 159.248,157.419 161.581,155.252 161.5,150.5 Z"/></g>
<g><path style="opacity:1" fill="#5d4444" d="M 96.5,162.5 C 98.8333,163.167 101.167,163.833 103.5,164.5C 101.387,165.548 99.7199,167.048 98.5,169C 101.837,176.786 100.504,177.62 94.5,171.5C 91.9058,172.592 89.7391,174.259 88,176.5C 87.8458,173.937 88.3458,171.437 89.5,169C 88.6853,167.02 87.352,165.52 85.5,164.5C 87.5,163.833 89.5,163.167 91.5,162.5C 92.4691,160.337 93.3024,158.004 94,155.5C 95.5234,157.569 96.3568,159.903 96.5,162.5 Z"/></g>
<g><path style="opacity:1" fill="#5c4343" d="M 142.5,162.5 C 144.833,163.167 147.167,163.833 149.5,164.5C 144.089,166.405 143.089,169.739 146.5,174.5C 146.167,174.833 145.833,175.167 145.5,175.5C 143.772,173.774 141.772,172.441 139.5,171.5C 133.364,177.469 132.03,176.469 135.5,168.5C 134.025,166.929 132.358,165.595 130.5,164.5C 132.833,163.833 135.167,163.167 137.5,162.5C 138.03,160.076 138.864,157.743 140,155.5C 140.744,157.9 141.577,160.233 142.5,162.5 Z"/></g>
<g><path style="opacity:1" fill="#5b4141" d="M 115.5,159.5 C 117.956,161.818 119.289,164.818 119.5,168.5C 122.518,168.335 125.518,168.502 128.5,169C 126.353,171.237 124.02,173.237 121.5,175C 123.321,177.729 123.988,180.563 123.5,183.5C 121.343,181.588 119.009,179.921 116.5,178.5C 113.991,179.921 111.657,181.588 109.5,183.5C 108.769,180.486 109.436,177.653 111.5,175C 108.833,173 106.167,171 103.5,169C 106.817,168.502 110.15,168.335 113.5,168.5C 114.167,165.5 114.833,162.5 115.5,159.5 Z"/></g>
<g><path style="opacity:1" fill="#a79a9a" d="M 91.5,162.5 C 89.5,163.167 87.5,163.833 85.5,164.5C 84.5266,164.013 83.5266,163.513 82.5,163C 85.4816,162.502 88.4816,162.335 91.5,162.5 Z"/></g>
<g><path style="opacity:1" fill="#a79a9a" d="M 96.5,162.5 C 99.5184,162.335 102.518,162.502 105.5,163C 104.956,163.717 104.289,164.217 103.5,164.5C 101.167,163.833 98.8333,163.167 96.5,162.5 Z"/></g>
<g><path style="opacity:1" fill="#a99d9d" d="M 137.5,162.5 C 135.167,163.167 132.833,163.833 130.5,164.5C 129.711,164.217 129.044,163.717 128.5,163C 131.482,162.502 134.482,162.335 137.5,162.5 Z"/></g>
<g><path style="opacity:1" fill="#aca0a0" d="M 142.5,162.5 C 145.518,162.335 148.518,162.502 151.5,163C 150.956,163.717 150.289,164.217 149.5,164.5C 147.167,163.833 144.833,163.167 142.5,162.5 Z"/></g>
<g><path style="opacity:1" fill="#f8f8f8" d="M 210.5,172.5 C 218.257,172.459 225.923,173.292 233.5,175C 238.414,178.171 238.747,181.837 234.5,186C 226.277,190.121 217.944,190.454 209.5,187C 205.276,181.764 205.609,176.931 210.5,172.5 Z"/></g>
</svg>
