<?xml version="1.0" encoding="UTF-8"?>
<svg version="1.1" xmlns="http://www.w3.org/2000/svg" width="512" height="512">
<path d="M0 0 C1.30525422 -0.00453111 2.61050845 -0.00906223 3.95531583 -0.01373065 C7.55841307 -0.02590632 11.16141709 -0.02570664 14.76453018 -0.02334189 C18.65833195 -0.02293235 22.55210438 -0.03398597 26.44589233 -0.04345703 C34.06711883 -0.06003803 41.68831438 -0.06556526 49.30955741 -0.06668179 C55.50727176 -0.06763362 61.70497594 -0.07175063 67.90268707 -0.07808304 C85.49167437 -0.09568734 103.08063731 -0.10492315 120.66963348 -0.10342209 C122.0906353 -0.10330222 122.0906353 -0.10330222 123.54034424 -0.10317993 C124.96309 -0.10305729 124.96309 -0.10305729 126.41457811 -0.10293217 C141.78266563 -0.10211945 157.15065511 -0.12125581 172.51871428 -0.14945666 C188.31551231 -0.17821451 204.11226256 -0.19199537 219.90908742 -0.19026911 C228.77098436 -0.18960623 237.6327785 -0.19505408 246.49465179 -0.21662521 C254.04020833 -0.2348752 261.58561545 -0.23915308 269.13118455 -0.22560637 C272.97691826 -0.21909598 276.82236564 -0.21888913 280.66807175 -0.23631287 C284.8474511 -0.25505272 289.02617337 -0.24243902 293.20556641 -0.22705078 C294.40666384 -0.23733791 295.60776128 -0.24762503 296.84525561 -0.25822389 C310.73993669 -0.14562886 321.89446983 3.85185077 332.07550049 13.33383179 C347.17155393 29.07766365 345.14474192 49.99329453 345.08380127 70.25302124 C345.08323651 72.88545135 345.08346716 75.51787032 345.08468628 78.15029907 C345.08572987 83.79662804 345.07950861 89.44291042 345.0682106 95.08922768 C345.05188676 103.25262929 345.04674059 111.4160086 345.04423462 119.57942476 C345.03986826 132.82724439 345.02658805 146.07503926 345.00762939 159.32284546 C344.98924308 172.18417233 344.97510007 185.04549245 344.96661377 197.90682983 C344.96608832 198.70094225 344.96556288 199.49505466 344.96502151 200.31323109 C344.96241124 204.29745982 344.95988387 208.28168861 344.9573977 212.26591742 C344.93669822 245.26643815 344.90150172 278.26692852 344.85675049 311.26742554 C345.61331627 311.40403725 346.36988205 311.54064896 347.14937407 311.68140042 C348.14114745 311.8609873 349.13292084 312.04057419 350.15474796 312.2256031 C351.62990913 312.49239567 351.62990913 312.49239567 353.13487154 312.76457798 C356.01259594 313.29621686 358.86940368 313.88696219 361.72369385 314.53256226 C362.73101059 314.75974945 363.73832733 314.98693665 364.77616882 315.2210083 C369.27085678 316.25040145 373.76469668 317.28322066 378.25640869 318.32553101 C380.62609111 318.87269527 382.99721378 319.413657 385.36968994 319.94857788 C388.81537058 320.7257848 392.25622044 321.52178444 395.69659424 322.32211304 C396.75700424 322.55767914 397.81741425 322.79324524 398.90995789 323.03594971 C399.8952095 323.26944122 400.88046112 323.50293274 401.89556885 323.74349976 C402.75951767 323.94176361 403.62346649 324.14002747 404.51359558 324.34429932 C407.39340035 325.47884799 408.88393753 326.90328801 410.85675049 329.26742554 C411.54425049 332.01742554 411.54425049 332.01742554 410.85675049 335.26742554 C408.85778797 338.25929378 406.38881836 340.72239486 403.85675049 343.26742554 C403.39107666 343.74002808 402.92540283 344.21263062 402.44561768 344.69955444 C399.27560651 347.9159108 396.07608838 351.10048193 392.85675049 354.26742554 C394.45724708 358.2355595 397.21743473 360.90364293 400.20513916 363.85873413 C400.75014069 364.405634 401.29514221 364.95253387 401.85665894 365.51600647 C403.65783124 367.32087978 405.46609964 369.11845492 407.27471924 370.91586304 C408.53341038 372.17336123 409.79173116 373.43123024 411.04969788 374.68945312 C413.68876158 377.32695279 416.33114925 379.96106058 418.97613525 382.59262085 C422.35249587 385.95205303 425.72229849 389.31796817 429.08982372 392.6862545 C431.68989325 395.28605082 434.29257126 397.88322251 436.89611244 400.47954178 C438.1385422 401.71880659 439.38038239 402.95866278 440.62160301 404.19913864 C448.12627315 411.76720382 448.12627315 411.76720382 456.04937744 418.88705444 C459.29825228 421.64177483 460.67502907 423.23767085 461.41925049 427.45492554 C460.83217149 431.43401655 460.46979372 432.10189093 457.90679932 434.91220093 C457.26916656 435.61184967 456.63153381 436.31149841 455.97457886 437.03234863 C452.20951251 441.00585894 448.36875898 444.8976518 444.49346924 448.76351929 C443.18367851 450.0747451 443.18367851 450.0747451 441.84742737 451.41246033 C440.01574432 453.24481981 438.18281414 455.07593338 436.34869385 456.90585327 C434.46828619 458.78265955 432.58928566 460.66073101 430.71295166 462.54159546 C427.99661844 465.26407905 425.27687738 467.98310876 422.55596924 470.70101929 C421.71330002 471.54571274 420.8706308 472.39040619 420.00242615 473.26069641 C419.22434097 474.03562943 418.4462558 474.81056244 417.64459229 475.60897827 C416.95955124 476.29322372 416.27451019 476.97746918 415.56871033 477.68244934 C413.41809095 479.67354776 412.12373824 480.21657073 409.23175049 480.76742554 C399.74450607 479.36190785 390.34889305 465.88417688 383.73175049 459.24008179 C382.3757689 457.88223205 381.01956409 456.52460521 379.66314697 455.16719055 C376.11658989 451.61683954 372.57304788 448.06349436 369.03015137 444.50949097 C365.40517689 440.87423475 361.777323 437.24185454 358.14971924 433.60922241 C351.04926148 426.49808252 343.95198952 419.38377224 336.85675049 412.26742554 C333.7576598 413.74244648 331.76358664 415.17456834 329.43096924 417.70883179 C328.4825415 418.70753296 328.4825415 418.70753296 327.51495361 419.72640991 C326.20465786 421.12501103 324.90248573 422.53126886 323.60870361 423.94515991 C320.48248678 427.21074203 318.49554801 429.05939828 314.12628174 430.48226929 C310.85675049 430.26742554 310.85675049 430.26742554 308.54815674 428.75570679 C306.47263347 425.70233883 305.6765414 423.04138078 304.79425049 419.45492554 C304.34372314 417.68182007 304.34372314 417.68182007 303.88409424 415.87289429 C302.93085332 411.76012965 302.11517891 407.62000051 301.2925415 403.47958374 C301.08486523 402.43760708 301.08486523 402.43760708 300.87299347 401.37458038 C300.53377905 399.67228838 300.19520067 397.96986965 299.85675049 396.26742554 C298.87705519 396.26913428 298.87705519 396.26913428 297.87756807 396.27087754 C259.1390296 396.33806053 220.40049867 396.38950985 181.66191371 396.42062153 C177.00705126 396.4243735 172.35218893 396.42825648 167.69732666 396.43222046 C166.7706555 396.43300739 165.84398434 396.43379432 164.88923224 396.4346051 C149.89888809 396.44764712 134.90857858 396.47129432 119.91825495 396.49888393 C104.52855545 396.52697165 89.13887405 396.54360891 73.74914998 396.54969102 C64.25838478 396.55380048 54.7677175 396.56676425 45.27698245 396.59117494 C38.76246528 396.60707371 32.24799847 396.61181655 25.73346332 396.60792967 C21.97896671 396.60601455 18.22464079 396.60888081 14.47017479 396.62504196 C10.38894707 396.64248025 6.30807869 396.63635507 2.2268219 396.62818909 C0.46849493 396.64129687 0.46849493 396.64129687 -1.3253538 396.65466946 C-15.27965879 396.57952556 -27.78729828 393.6088262 -38.45965576 384.23226929 C-45.90807737 376.44464062 -51.25767841 366.5906069 -51.27747059 355.71469784 C-51.28192843 354.57793037 -51.28638628 353.44116291 -51.29097921 352.26994795 C-51.29079484 351.02065348 -51.29061048 349.77135902 -51.29042053 348.48420715 C-51.29372049 347.14390855 -51.29744634 345.80361094 -51.30156201 344.46331459 C-51.31157524 340.77667416 -51.31529772 337.09005002 -51.31795132 333.40339792 C-51.32185642 329.42843521 -51.33143466 325.45348537 -51.34016418 321.47853088 C-51.35992348 311.87680147 -51.36999443 302.27507101 -51.37889197 292.67332634 C-51.38327602 288.15051889 -51.38864256 283.62771261 -51.39388084 279.10490608 C-51.4108931 264.06776262 -51.42538673 249.03061989 -51.43262959 233.99346828 C-51.43453945 230.09154192 -51.43645979 226.18961555 -51.43841553 222.28768921 C-51.43889927 221.31789621 -51.43938301 220.34810322 -51.43988141 219.34892256 C-51.44817968 203.64291229 -51.4735132 187.93697824 -51.5059962 172.23100125 C-51.53908151 156.10215298 -51.5570797 139.97334341 -51.56027383 123.84446102 C-51.56243763 114.79028127 -51.57116725 105.73621262 -51.596735 96.68206596 C-51.61846216 88.97018564 -51.62648254 81.25844342 -51.61676822 73.54653596 C-51.61222925 69.61399497 -51.61408597 65.68173882 -51.63352966 61.74923706 C-51.65120358 58.14341833 -51.65012993 54.53809133 -51.63463237 50.93226708 C-51.63114691 49.02185807 -51.64725111 47.11144364 -51.66423684 45.20110697 C-51.5715532 32.72552601 -47.71558119 22.2434321 -39.10809326 13.10726929 C-27.59508356 2.2440238 -15.37101451 -0.03934411 0 0 Z M-30.01824951 25.14242554 C-39.93318622 37.32953524 -37.14324951 50.36607248 -37.14324951 66.26742554 C83.96675049 66.26742554 205.07675049 66.26742554 329.85675049 66.26742554 C331.18075591 42.7013187 331.18075591 42.7013187 320.85675049 23.26742554 C310.85209862 14.28121129 300.27767101 14.116665 287.42735291 14.13371277 C286.17477701 14.13144721 284.92220112 14.12918166 283.63166839 14.12684745 C280.16650016 14.12074674 276.70135613 14.120861 273.23618376 14.12204182 C269.49442718 14.12224626 265.75267828 14.11672292 262.01092529 14.11198425 C254.68454398 14.10368671 247.35817071 14.10092982 240.03178509 14.10037187 C234.07522854 14.09989631 228.11867463 14.09783951 222.16211891 14.09467125 C205.26551002 14.08586725 188.36890747 14.08125149 171.47229626 14.08200172 C170.56187368 14.08204168 169.65145109 14.08208164 168.71343994 14.0821228 C167.80190282 14.08216368 166.8903657 14.08220456 165.95120624 14.08224668 C151.17914975 14.08265312 136.40711875 14.07308356 121.63506963 14.05898444 C106.45873138 14.04461399 91.28240555 14.03771462 76.10606033 14.03857821 C67.58911011 14.03890994 59.07218662 14.03617332 50.55524254 14.02540016 C43.30383182 14.01628639 36.05245995 14.01412713 28.80104598 14.02090959 C25.10361976 14.02417031 21.40626804 14.02424767 17.70884895 14.01555634 C13.69487617 14.00621818 9.68107523 14.012479 5.667099 14.02018738 C4.50648112 14.01504381 3.34586325 14.00990025 2.15007514 14.00460082 C-10.28857316 14.05732249 -21.23693084 15.64313741 -30.01824951 25.14242554 Z M-37.14324951 80.26742554 C-37.20512451 125.27117554 -37.26699951 170.27492554 -37.33074951 216.64242554 C-37.35806152 230.85611206 -37.38537354 245.06979858 -37.41351318 259.71420288 C-37.42354606 272.44755445 -37.42354606 272.44755445 -37.42958069 285.1809082 C-37.4323773 290.8555067 -37.44337761 296.5300165 -37.4599762 302.20458984 C-37.47910004 308.7521779 -37.48775084 315.29968093 -37.48358436 321.84729711 C-37.48178049 325.19527302 -37.48628317 328.5429071 -37.5008949 331.89087367 C-37.51583784 335.48166349 -37.51221175 339.07197984 -37.50401306 342.66278076 C-37.51275105 343.69947214 -37.52148905 344.73616352 -37.53049183 345.80426979 C-37.46728689 356.11857709 -35.08573263 365.40829422 -28.14324951 373.26742554 C-19.49344889 380.5065956 -11.68316641 381.56198262 -0.69088745 381.50793457 C0.57605678 381.50964342 1.84300101 381.51135227 3.14833748 381.5131129 C6.65791366 381.51757894 10.16736746 381.50959302 13.67692804 381.49955678 C17.46417895 381.49091384 21.25142304 381.49384304 25.03868103 381.49536133 C31.59802763 381.49640964 38.15733441 381.4901386 44.71667099 381.47888565 C54.20034604 381.46262641 63.68400186 381.45742221 73.16768934 381.45490967 C88.55461386 381.45053323 103.94151717 381.43722552 119.32843018 381.41830444 C134.27471816 381.39994432 149.22100038 381.38578846 164.16729736 381.37728882 C165.08870266 381.37676337 166.01010795 381.37623792 166.95943461 381.37569655 C171.58188879 381.37308647 176.204343 381.37055905 180.82679725 381.36807275 C219.17012985 381.34734185 257.51343877 381.31211771 295.85675049 381.26742554 C295.70597581 380.01719132 295.55520113 378.76695711 295.39985752 377.47883701 C295.31504676 376.77558027 295.23023601 376.07232352 295.14285523 375.34775597 C294.73098342 372.35294557 294.06265864 369.44408744 293.36627197 366.50350952 C292.91591835 364.58628334 292.91591835 364.58628334 292.45646667 362.63032532 C292.2969496 361.95959425 292.13743252 361.28886318 291.97308159 360.59780693 C291.46868067 358.47495291 290.97017157 356.3507907 290.47322083 354.22618103 C289.06066456 348.19116181 287.63872112 342.15837754 286.21051025 336.12704468 C285.33394819 332.42351409 284.46498076 328.71826649 283.60054207 325.0118885 C283.27136153 323.60747847 282.93926811 322.20374769 282.60412407 320.80074883 C282.13494372 318.83615982 281.67619234 316.86908917 281.21783447 314.90194702 C280.8226487 313.22938087 280.8226487 313.22938087 280.41947937 311.52302551 C279.81249215 308.01137427 279.62850215 304.82386611 279.85675049 301.26742554 C281.79425049 299.23617554 281.79425049 299.23617554 284.85675049 298.26742554 C287.94978516 298.3851964 290.85124421 299.05633256 293.85675049 299.76742554 C294.72235596 299.95595093 295.58796143 300.14447632 296.47979736 300.3387146 C304.02878246 302.00512732 311.55224508 303.81629918 319.05206299 305.69125366 C319.88479736 305.89685913 320.71753174 306.1024646 321.57550049 306.31430054 C322.67281494 306.59032104 322.67281494 306.59032104 323.79229736 306.87191772 C326.16117676 307.39286426 326.16117676 307.39286426 329.85675049 307.26742554 C329.85675049 232.35742554 329.85675049 157.44742554 329.85675049 80.26742554 C208.74675049 80.26742554 87.63675049 80.26742554 -37.14324951 80.26742554 Z M295.85675049 315.26742554 C299.4413634 333.2660693 303.77308177 351.09577496 308.01196289 368.94851685 C309.01273776 373.16573799 310.01078818 377.3836038 311.00909424 381.60140991 C312.9557048 389.82403472 314.90524958 398.04596001 316.85675049 406.26742554 C320.12251159 406.62019063 320.12251159 406.62019063 322.49346924 403.64242554 C324.03359294 401.96010576 325.54802941 400.26302753 327.03448486 398.53305054 C327.53657471 397.99164429 328.03866455 397.45023804 328.55596924 396.89242554 C328.99771484 396.38969116 329.43946045 395.88695679 329.89459229 395.36898804 C333.0824335 393.57932279 336.34272981 393.65995354 339.85675049 394.26742554 C342.32979759 395.99000704 344.0289602 397.42694276 346.05401611 399.57235718 C346.61779465 400.13657379 347.18157318 400.70079041 347.76243591 401.28210449 C349.61543832 403.14574754 351.43858919 405.03597646 353.26300049 406.92758179 C354.55335827 408.23542281 355.84558568 409.54142159 357.1395874 410.84565735 C360.54087083 414.28310871 363.91791176 417.74341797 367.28991699 421.20956421 C371.3717163 425.39707589 375.48018661 429.55838286 379.58586884 433.72245693 C382.7846795 436.96746325 385.97908176 440.21640345 389.16009521 443.47886658 C398.86861061 453.61017293 398.86861061 453.61017293 409.85675049 462.26742554 C420.74675049 451.37742554 431.63675049 440.48742554 442.85675049 429.26742554 C440.71175736 424.97743928 438.03970907 422.19004491 434.67877197 418.87826538 C433.7297702 417.93123497 433.7297702 417.93123497 432.76159668 416.96507263 C430.67157199 414.88153354 428.57466812 412.80505746 426.47784424 410.72836304 C425.02527516 409.28206431 423.57322 407.83524926 422.12165833 406.38793945 C418.30071998 402.58030287 414.47425445 398.77827356 410.6461792 394.97781372 C404.51376853 388.88853076 398.38807827 382.7925052 392.26558113 376.69325638 C390.12242203 374.56034719 387.97589705 372.43086813 385.82902527 370.30169678 C384.52101436 369.00051129 383.21311148 367.6992172 381.90533447 366.39779663 C381.30427383 365.80347336 380.7032132 365.20915009 380.0839386 364.59681702 C375.11933867 359.6460135 375.11933867 359.6460135 374.35675049 355.64242554 C375.11952411 350.49370359 378.27612594 347.8687873 381.85675049 344.26742554 C382.52448486 343.58551147 383.19221924 342.90359741 383.88018799 342.20101929 C385.52412302 340.54030941 387.18169769 338.89665622 388.85675049 337.26742554 C385.02309585 335.01291071 380.84322209 334.18651084 376.5557251 333.20443726 C375.7211528 333.00907379 374.88658051 332.81371033 374.02671814 332.61242676 C371.2719826 331.96898257 368.51560906 331.33288788 365.75909424 330.69711304 C363.84377591 330.25191448 361.92853955 329.80636312 360.01338196 329.36047363 C356.001862 328.42766393 351.98955395 327.49834741 347.97662354 326.57162476 C342.82803674 325.38246322 337.68121205 324.18587332 332.53491879 322.98682976 C328.58163225 322.06638668 324.62758415 321.14925224 320.67328072 320.23318863 C318.77482294 319.79308972 316.87657136 319.35210042 314.97852898 318.91021347 C312.32922426 318.29407626 309.6789621 317.68224569 307.02838135 317.07162476 C306.24128784 316.88775208 305.45419434 316.70387939 304.64324951 316.51443481 C301.64727485 315.82809193 298.94152749 315.26742554 295.85675049 315.26742554 Z " fill="#ffffff" transform="translate(51.14324951171875,15.732574462890625)"/>
<path d="M0 0 C0.72953384 -0.00807175 1.45906769 -0.01614349 2.21070862 -0.02445984 C3.76341361 -0.03832632 5.31614941 -0.04903695 6.86889648 -0.05688477 C9.21334696 -0.07392397 11.55632174 -0.11776012 13.90039062 -0.16210938 C25.32227691 -0.28175742 34.44753658 1.10118782 43.05859375 9.171875 C49.06913882 16.23760465 51.17024027 24.14201195 51.109375 33.2109375 C50.5114175 39.38983171 48.24420407 45.09658452 44.81640625 50.23828125 C45.40808594 50.69976562 45.99976563 51.16125 46.609375 51.63671875 C53.39955548 57.24166381 58.12505761 63.42987149 59.81640625 72.23828125 C60.76071485 82.79596096 58.93184039 90.74107265 52.25390625 99.05078125 C47.7161351 104.43748955 41.4402357 107.69917979 34.45309448 108.51382446 C28.75396273 108.88381814 23.06078928 108.86380881 17.35253906 108.78027344 C14.29558004 108.73799321 11.24079928 108.73924999 8.18359375 108.74609375 C6.2382659 108.73561392 4.29294937 108.72268237 2.34765625 108.70703125 C1.43520142 108.70682983 0.52274658 108.70662842 -0.4173584 108.7064209 C-1.26254028 108.69050903 -2.10772217 108.67459717 -2.97851562 108.65820312 C-4.0912384 108.64557434 -4.0912384 108.64557434 -5.22644043 108.63269043 C-7.74612128 108.12491966 -8.61500241 107.24325538 -10.18359375 105.23828125 C-11.52206483 101.22286801 -11.3394013 97.35207702 -11.34472656 93.16455078 C-11.34969147 92.23580139 -11.35465637 91.307052 -11.35977173 90.35015869 C-11.37439223 87.27379621 -11.38119488 84.19748528 -11.38671875 81.12109375 C-11.39246992 78.98501585 -11.39822766 76.84893797 -11.4039917 74.71286011 C-11.41450111 70.23223632 -11.4203443 65.75163048 -11.42382812 61.27099609 C-11.42931529 55.52857327 -11.45334845 49.78638728 -11.48180008 44.04403877 C-11.50041892 39.63112697 -11.50563164 35.21827232 -11.507164 30.80532455 C-11.51019233 28.68821797 -11.51822689 26.57111243 -11.53134918 24.45404434 C-11.54839507 21.49277947 -11.54653299 18.53209475 -11.54003906 15.57080078 C-11.54925385 14.6958194 -11.55846863 13.82083801 -11.56796265 12.91934204 C-11.50481566 3.73162652 -9.15226084 0.09560147 0 0 Z M3.81640625 14.23828125 C3.81640625 25.12828125 3.81640625 36.01828125 3.81640625 47.23828125 C6.78640625 47.32078125 9.75640625 47.40328125 12.81640625 47.48828125 C13.73550781 47.52469727 14.65460938 47.56111328 15.6015625 47.59863281 C22.72656144 47.69334764 27.98087902 45.9245702 33.19140625 40.98828125 C35.72619484 36.69863902 37.13559189 32.96754975 36.546875 27.93359375 C35.10484257 22.40735335 32.5601126 19.58677985 27.94921875 16.33203125 C22.89177746 13.73847161 17.54380868 14.11588182 12.00390625 14.17578125 C7.95109375 14.20671875 7.95109375 14.20671875 3.81640625 14.23828125 Z M3.81640625 61.23828125 C3.81640625 72.12828125 3.81640625 83.01828125 3.81640625 94.23828125 C8.27140625 94.32078125 12.72640625 94.40328125 17.31640625 94.48828125 C18.70537109 94.52469727 20.09433594 94.56111328 21.52539062 94.59863281 C30.03924954 94.674781 35.80597247 94.03763957 42.19140625 87.98828125 C44.72788888 83.69577218 46.20809638 79.93509028 45.4765625 74.8984375 C43.88743829 69.2471733 41.68956251 66.45456438 36.81640625 63.23828125 C32.82490385 61.2850201 29.6270463 61.00256764 25.203125 61.04296875 C23.516427 61.05046143 23.516427 61.05046143 21.7956543 61.05810547 C20.37937744 61.07631348 18.96310059 61.09452148 17.50390625 61.11328125 C10.72859375 61.17515625 10.72859375 61.17515625 3.81640625 61.23828125 Z " fill="#ffffff" transform="translate(247.18359375,129.76171875)"/>
<path d="M0 0 C0.88405518 0.00902344 1.76811035 0.01804688 2.67895508 0.02734375 C12.79200629 0.29615397 19.66583972 3.01465882 27.078125 10.01953125 C33.03258639 17.05352285 36.21224481 25.27084328 36.28613281 34.4362793 C36.29574036 35.40466232 36.3053479 36.37304535 36.31524658 37.37077332 C36.31949646 38.40728531 36.32374634 39.4437973 36.328125 40.51171875 C36.33382507 41.59072952 36.33952515 42.6697403 36.34539795 43.78144836 C36.35483297 46.0635175 36.36137597 48.34560017 36.36523438 50.62768555 C36.37491661 54.09513547 36.40594538 57.56198652 36.4375 61.02929688 C36.44403309 63.25260067 36.44928236 65.47590868 36.453125 67.69921875 C36.4654718 68.72560959 36.4778186 69.75200043 36.49053955 70.80949402 C36.45532527 82.35723745 33.34241763 91.59529285 25.53125 100.19140625 C17.31090065 107.92706519 8.33940264 109.03521892 -2.54296875 108.90576172 C-12.75866631 108.53954583 -19.44330854 105.7347615 -26.8984375 98.6484375 C-34.81313784 89.79523515 -36.18705132 80.21478089 -36.2109375 68.765625 C-36.2175943 67.64742371 -36.2242511 66.52922241 -36.23110962 65.37713623 C-36.24120734 63.01706581 -36.24592753 60.656967 -36.24560547 58.296875 C-36.24996889 54.71305487 -36.28629443 51.13047682 -36.32421875 47.546875 C-36.33008966 45.24479584 -36.33405722 42.94271088 -36.3359375 40.640625 C-36.35030853 39.581922 -36.36467957 38.52321899 -36.37948608 37.43243408 C-36.3149887 26.76555923 -33.32504176 17.26519365 -25.875 9.4375 C-18.13504074 2.37197702 -10.32885012 -0.12571007 0 0 Z M-16.875 21.4375 C-21.12126056 27.68311223 -21.46446743 33.48862726 -21.40625 40.875 C-21.4100769 41.95450928 -21.41390381 43.03401855 -21.41784668 44.14624023 C-21.42055738 46.41879209 -21.41325553 48.6913756 -21.39648438 50.96386719 C-21.37506405 54.42714507 -21.39631623 57.88834856 -21.421875 61.3515625 C-21.41923158 63.56771288 -21.4141063 65.78386197 -21.40625 68 C-21.41434692 69.02730225 -21.42244385 70.05460449 -21.43078613 71.11303711 C-21.33637965 78.41038654 -20.07229743 84.14653175 -14.875 89.49609375 C-14.215 89.95113281 -13.555 90.40617187 -12.875 90.875 C-11.885 91.58462891 -11.885 91.58462891 -10.875 92.30859375 C-5.42716864 95.38363918 1.33442426 95.16491682 7.34375 94.01171875 C13.45600116 92.0957631 16.98991632 88.06102705 20.18251038 82.64276123 C21.28715401 80.05808791 21.39787265 78.14352383 21.43139648 75.33691406 C21.44738388 74.32195862 21.46337128 73.30700317 21.47984314 72.2612915 C21.48520584 71.16959656 21.49056854 70.07790161 21.49609375 68.953125 C21.50512222 67.82356384 21.5141507 66.69400269 21.52345276 65.5302124 C21.53795904 63.13963471 21.54684293 60.74901729 21.55053711 58.35839844 C21.56241101 54.7148067 21.61157738 51.07292075 21.66210938 47.4296875 C21.67157644 45.10417491 21.67881012 42.77865194 21.68359375 40.453125 C21.70312607 39.36952698 21.72265839 38.28592896 21.74278259 37.16949463 C21.70254863 30.36712237 20.70910204 25.61968597 16.125 20.4375 C6.69036835 12.22519494 -8.04056647 12.0982417 -16.875 21.4375 Z " fill="#ffffff" transform="translate(179.875,129.5625)"/>
<path d="M0 0 C0.98488041 -0.00623996 1.96976083 -0.01247993 2.9844861 -0.01890898 C6.28803658 -0.03487679 9.59085309 -0.02221951 12.89440918 -0.00964355 C15.26139253 -0.01506297 17.6283725 -0.0221846 19.99534607 -0.03088379 C26.42708267 -0.04914137 32.85856302 -0.04203937 39.29030418 -0.02936745 C43.30642551 -0.02226036 47.32251399 -0.02359587 51.33863831 -0.02732849 C52.0053793 -0.02794142 52.6721203 -0.02855436 53.35906556 -0.02918586 C54.71354625 -0.03046477 56.06802693 -0.03176162 57.42250758 -0.03307623 C70.12286358 -0.04448184 82.82310408 -0.03136867 95.52344114 -0.00987476 C106.42042973 0.00799625 117.31724788 0.00489213 128.2142334 -0.0135498 C140.86920017 -0.03495691 153.52406572 -0.0433832 166.17904806 -0.03110075 C167.52853996 -0.02982656 168.87803187 -0.02856907 170.2275238 -0.02732849 C171.22348192 -0.02640284 171.22348192 -0.02640284 172.2395604 -0.02545848 C176.91808378 -0.02200509 181.5965236 -0.02802901 186.27503967 -0.0372467 C192.57223278 -0.04878652 198.86910346 -0.04081322 205.16626167 -0.01766968 C207.47979255 -0.01237265 209.79335048 -0.01391324 212.10687065 -0.02272034 C215.26033633 -0.03361972 218.41276299 -0.01997917 221.56616211 0 C222.48590584 -0.00892289 223.40564958 -0.01784577 224.35326433 -0.02703905 C228.47416915 0.02374856 230.74090535 0.1879756 234.35523224 2.32093048 C236.28308105 4.50793457 236.28308105 4.50793457 236.84558105 8.00793457 C236.28308105 11.50793457 236.28308105 11.50793457 234.85288239 13.69493866 C230.93207029 16.46107323 227.29418154 16.06081724 222.60375977 16.01586914 C221.11441178 16.02522908 221.11441178 16.02522908 219.59497595 16.03477812 C216.25834961 16.05076959 212.92244756 16.03807945 209.58581543 16.0255127 C207.19765292 16.03093106 204.80949375 16.0380521 202.42134094 16.04675293 C196.60246042 16.06312438 190.78381118 16.06069307 184.9649235 16.04910237 C180.23629794 16.04007289 175.50773022 16.03884192 170.77909851 16.04319763 C169.77002462 16.04411703 169.77002462 16.04411703 168.74056539 16.045055 C167.37400343 16.04633389 166.00744149 16.04763074 164.64087957 16.04894537 C151.82324305 16.06035461 139.00572091 16.04723212 126.18810314 16.0257439 C115.18731583 16.00787256 104.18669735 16.01097658 93.18591309 16.02941895 C80.41450104 16.05081964 67.64318927 16.05925594 54.8717618 16.04696989 C53.51019575 16.04569568 52.14862968 16.0444382 50.7870636 16.04319763 C49.78215961 16.04227198 49.78215961 16.04227198 48.75695452 16.04132763 C44.03339505 16.03787231 39.30989912 16.04370696 34.58634949 16.05311584 C28.2300779 16.06464788 21.87412598 16.05669669 15.51788902 16.03353882 C13.18136311 16.02823761 10.84481042 16.02978946 8.50829506 16.03858948 C5.32596432 16.04947245 2.14466672 16.03586837 -1.03759766 16.01586914 C-1.96871825 16.02479203 -2.89983884 16.03371491 -3.85917521 16.04290819 C-10.0663507 15.96691074 -10.0663507 15.96691074 -13.28672028 13.69493866 C-15.4140581 10.44189653 -15.32646537 8.30066785 -14.71691895 4.50793457 C-10.41431007 -0.37306186 -6.0631759 -0.05882185 0 0 Z " fill="#ffffff" transform="translate(73.7169189453125,348.4920654296875)"/>
<path d="M0 0 C1.00091691 -0.0055344 2.00183381 -0.01106879 3.03308153 -0.0167709 C6.40279654 -0.0304353 9.77177829 -0.01537645 13.14147949 -0.00050354 C15.55082007 -0.0042846 17.96015848 -0.00978287 20.36949158 -0.01687622 C26.24365123 -0.02942038 32.1176151 -0.02323953 37.99175251 -0.00820064 C44.82893242 0.00863911 51.66605857 0.00545178 58.5032528 0.00170528 C70.70057624 -0.00417655 82.89779652 0.01001088 95.09509277 0.03465271 C106.93725451 0.05857446 118.77927841 0.06565741 130.62145996 0.05516052 C143.50931079 0.04375727 156.39709783 0.0418139 169.28494787 0.05625862 C170.65858809 0.0577845 172.0322283 0.05930485 173.40586853 0.06081963 C174.08176845 0.06157744 174.75766836 0.06233525 175.45405009 0.06311603 C180.22263664 0.06786346 184.99119476 0.06600418 189.75978088 0.06175423 C196.17507464 0.05631983 202.59021944 0.06704557 209.00547981 0.08870888 C211.36499955 0.09429029 213.72453766 0.09472972 216.08405876 0.08975601 C219.2951053 0.08383447 222.50555969 0.09624831 225.71655273 0.11352539 C226.65905018 0.10751535 227.60154763 0.1015053 228.57260561 0.09531313 C229.43016057 0.10375307 230.28771554 0.11219301 231.17125702 0.12088871 C231.91274349 0.12191784 232.65422996 0.12294697 233.41818571 0.12400728 C235.90928119 0.60833343 236.80321042 1.53483648 238.35827637 3.50120544 C238.75671387 5.43870544 238.75671387 5.43870544 238.73327637 7.50120544 C238.74101074 8.18183044 238.74874512 8.86245544 238.75671387 9.56370544 C238.23593328 12.09612868 237.35526182 12.88731628 235.35827637 14.50120544 C233.42574841 14.8784036 233.42574841 14.8784036 231.1896677 14.88152218 C230.33621283 14.88996212 229.48275796 14.89840206 228.60344082 14.90709776 C227.66551644 14.90108771 226.72759206 14.89507767 225.76124573 14.8888855 C224.26705405 14.8969638 224.26705405 14.8969638 222.74267668 14.90520531 C219.38924023 14.9195661 216.03619401 14.9123611 212.68273926 14.90525818 C210.28487326 14.91095749 207.88700997 14.91792004 205.489151 14.92605591 C199.64277292 14.94218001 193.79649401 14.9440781 187.9501055 14.938843 C183.19905558 14.93480521 178.44803745 14.9362402 173.69698906 14.94159126 C173.02136228 14.94233968 172.3457355 14.94308811 171.64963518 14.94385921 C170.2771947 14.94539065 168.90475422 14.946929 167.53231376 14.94847418 C154.65509371 14.96220946 141.77793437 14.95675438 128.9007157 14.94528896 C117.11507056 14.93535598 105.3295824 14.94829648 93.54396147 14.97222316 C81.44817808 14.99659486 69.35246786 15.00622676 57.2566604 14.99957043 C50.46349583 14.99607383 43.67045202 14.99833912 36.87730598 15.01582146 C30.49071976 15.03205331 24.1043599 15.02739183 17.71777916 15.00851631 C15.36996139 15.00481623 13.02212159 15.00797988 10.67432404 15.0184021 C7.47662829 15.03151641 4.27994207 15.02014897 1.08229065 15.00241089 C0.14659699 15.0120159 -0.78909667 15.0216209 -1.75314468 15.03151697 C-7.99978344 14.95990267 -7.99978344 14.95990267 -11.22213078 12.6573801 C-13.15593064 9.7201927 -13.14516956 7.9534061 -12.64172363 4.50120544 C-10.24327161 -1.0911813 -5.27148181 -0.05372176 0 0 Z " fill="#ffffff" transform="translate(71.6417236328125,265.49879455566406)"/>
<path d="M0 0 C1.00091691 -0.0055344 2.00183381 -0.01106879 3.03308153 -0.0167709 C6.40279654 -0.0304353 9.77177829 -0.01537645 13.14147949 -0.00050354 C15.55082007 -0.0042846 17.96015848 -0.00978287 20.36949158 -0.01687622 C26.24365123 -0.02942038 32.1176151 -0.02323953 37.99175251 -0.00820064 C44.82893242 0.00863911 51.66605857 0.00545178 58.5032528 0.00170528 C70.70057624 -0.00417655 82.89779652 0.01001088 95.09509277 0.03465271 C106.93725451 0.05857446 118.77927841 0.06565741 130.62145996 0.05516052 C143.50931079 0.04375727 156.39709783 0.0418139 169.28494787 0.05625862 C170.65858809 0.0577845 172.0322283 0.05930485 173.40586853 0.06081963 C174.08176845 0.06157744 174.75766836 0.06233525 175.45405009 0.06311603 C180.22263664 0.06786346 184.99119476 0.06600418 189.75978088 0.06175423 C196.17507464 0.05631983 202.59021944 0.06704557 209.00547981 0.08870888 C211.36499955 0.09429029 213.72453766 0.09472972 216.08405876 0.08975601 C219.2951053 0.08383447 222.50555969 0.09624831 225.71655273 0.11352539 C226.65905018 0.10751535 227.60154763 0.1015053 228.57260561 0.09531313 C229.43016057 0.10375307 230.28771554 0.11219301 231.17125702 0.12088871 C231.91274349 0.12191784 232.65422996 0.12294697 233.41818571 0.12400728 C235.94648625 0.61556695 236.82730853 1.45564031 238.35827637 3.50120544 C238.83093779 7.21497377 239.00649275 9.50275369 236.9358902 12.69211578 C233.00760382 15.44917047 229.37123933 15.05410596 224.67895508 15.00914001 C223.18960709 15.01849996 223.18960709 15.01849996 221.67017126 15.02804899 C218.33354492 15.04404047 214.99764288 15.03135032 211.66101074 15.01878357 C209.27284823 15.02420193 206.88468906 15.03132297 204.49653625 15.0400238 C198.67765573 15.05639525 192.8590065 15.05396394 187.04011881 15.04237324 C182.31149325 15.03334377 177.58292553 15.03211279 172.85429382 15.03646851 C171.84521993 15.0373879 171.84521993 15.0373879 170.8157607 15.03832588 C169.44919875 15.03960476 168.08263681 15.04090162 166.71607488 15.04221624 C153.89843836 15.05362548 141.08091622 15.04050299 128.26329845 15.01901478 C117.26251114 15.00114344 106.26189266 15.00424745 95.2611084 15.02268982 C82.48969635 15.04409051 69.71838458 15.05252681 56.94695711 15.04024076 C55.58539106 15.03896655 54.22382499 15.03770907 52.86225891 15.03646851 C51.85735492 15.03554285 51.85735492 15.03554285 50.83214983 15.0345985 C46.10859036 15.03114318 41.38509443 15.03697783 36.6615448 15.04638672 C30.30527322 15.05791876 23.94932129 15.04996756 17.59308434 15.02680969 C15.25655842 15.02150849 12.92000573 15.02306034 10.58349037 15.03186035 C7.40115963 15.04274333 4.21986203 15.02913925 1.03759766 15.00914001 C0.10647707 15.0180629 -0.82464353 15.02698579 -1.78397989 15.03617907 C-8.00039278 14.96006852 -8.00039278 14.96006852 -11.21933746 12.65695953 C-13.1569459 9.72033979 -13.14537495 7.95481448 -12.64172363 4.50120544 C-10.24327161 -1.0911813 -5.27148181 -0.05372176 0 0 Z " fill="#ffffff" transform="translate(71.6417236328125,307.49879455566406)"/>
<path d="M0 0 C4.11145298 0.66076923 5.04654557 1.26764711 7.5 4.5625 C7.89509026 7.2119239 8.04789324 9.44679436 8.01757812 12.09399414 C8.0245874 12.8474411 8.03159668 13.60088806 8.03881836 14.37716675 C8.05641766 16.86770546 8.04476124 19.35710593 8.03125 21.84765625 C8.03394635 23.58678911 8.03782996 25.3259205 8.04284668 27.06504822 C8.04874598 30.7143282 8.04017241 34.36321672 8.02148438 38.01245117 C7.99881296 42.66373573 8.01173939 47.31409096 8.03577423 51.96534061 C8.05032241 55.56103843 8.0455832 59.15652109 8.03526306 62.75222588 C8.0326144 64.4652359 8.03579925 66.17826614 8.04518127 67.89125252 C8.09710691 80.04796739 7.66121329 91.5165499 -1.34375 100.76953125 C-9.19454947 107.29764168 -16.79514307 109.46609145 -26.94140625 109.01953125 C-34.69288508 108.02400653 -41.04838465 105.26191604 -46.5 99.5625 C-51.75507518 92.36203641 -54.66391027 85.64371852 -54.375 76.6875 C-53.5 73.5625 -53.5 73.5625 -51.875 71.5625 C-48.41616747 70.10614946 -46.08701629 70.64944131 -42.5 71.5625 C-40.32349896 73.20639843 -39.59759364 74.16319081 -38.9453125 76.83203125 C-38.83960937 77.67121094 -38.73390625 78.51039063 -38.625 79.375 C-37.6792789 84.60697317 -36.49039308 87.0058453 -32.5 90.5625 C-28.29198687 93.14427225 -24.68740857 93.90607819 -19.8125 93.0625 C-14.91487595 91.69454294 -12.16429401 89.10297962 -9.38705444 84.8636322 C-8.14256592 81.63527046 -8.22447732 78.52898952 -8.24462891 75.11938477 C-8.24100845 74.37580719 -8.237388 73.63222961 -8.23365784 72.86611938 C-8.22677546 71.25486539 -8.22425623 69.64358815 -8.22560501 68.03232002 C-8.22657129 65.48069143 -8.21361658 62.92948288 -8.19662476 60.37791443 C-8.15038017 53.12461586 -8.12574345 45.87136087 -8.11914062 38.61791992 C-8.11412479 34.17813267 -8.08987309 29.738785 -8.05381393 25.29914665 C-8.04401904 23.60911638 -8.04168232 21.91902563 -8.04698563 20.2289753 C-8.0540599 17.86384237 -8.03676881 15.50001896 -8.01416016 13.13500977 C-8.02233261 12.43926346 -8.03050507 11.74351715 -8.03892517 11.02668762 C-7.97984476 7.54814962 -7.52910505 5.60965727 -5.68661499 2.62437439 C-3.5 0.5625 -3.5 0.5625 0 0 Z " fill="#ffffff" transform="translate(111.5,129.4375)"/>
<path d="M0 0 C0.71873795 -0.00524185 1.43747589 -0.0104837 2.17799377 -0.0158844 C3.69685577 -0.02230231 5.21576748 -0.0209705 6.73461914 -0.01245117 C9.05510311 -0.00394767 11.37311911 -0.03268925 13.69335938 -0.06445312 C15.17057218 -0.06606549 16.64778933 -0.06548694 18.125 -0.0625 C18.81677841 -0.07373398 19.50855682 -0.08496796 20.22129822 -0.09654236 C23.58369853 -0.04806759 25.35608138 0.22760429 28.07055664 2.27709961 C30.18249543 5.19966821 30.14402323 6.90136304 29.62890625 10.43359375 C28.59179688 12.58789063 28.59179688 12.58789063 26.62890625 14.43359375 C23.87980613 14.83944976 21.53484325 14.99490233 18.78515625 14.96484375 C17.63690369 14.97058411 17.63690369 14.97058411 16.4654541 14.97644043 C14.84821252 14.97916042 13.23092702 14.97179293 11.61376953 14.95507812 C9.13734932 14.93366675 6.66382991 14.95487361 4.1875 14.98046875 C2.61587901 14.97782549 1.04425982 14.97270053 -0.52734375 14.96484375 C-1.26803101 14.97294067 -2.00871826 14.9810376 -2.77185059 14.98937988 C-6.04465384 14.92964535 -7.89429498 14.86564894 -10.36914062 12.62304688 C-11.89814084 9.28189825 -11.25999828 6.92571867 -10.37109375 3.43359375 C-7.84914896 -0.45710126 -4.21665845 -0.01784165 0 0 Z " fill="#ffffff" transform="translate(56.37109375,48.56640625)"/>
<path d="M0 0 C1.04269043 -0.00786278 1.04269043 -0.00786278 2.10644531 -0.0158844 C3.57225207 -0.02229154 5.03811033 -0.02098447 6.50390625 -0.01245117 C8.74311987 -0.00393242 10.97978772 -0.03272793 13.21875 -0.06445312 C14.64583257 -0.06606516 16.07291965 -0.06548756 17.5 -0.0625 C18.79421875 -0.06435303 20.0884375 -0.06620605 21.421875 -0.06811523 C24.75 0.43359375 24.75 0.43359375 27.17578125 2.27709961 C29.30790983 5.19786446 29.2664803 6.89201453 28.75 10.43359375 C27.69702148 12.58789062 27.69702148 12.58789062 25.75 14.43359375 C23.08159654 14.84001773 20.82899582 14.99503811 18.16015625 14.96484375 C17.41922226 14.96867065 16.67828827 14.97249756 15.91490173 14.97644043 C14.34893433 14.97916043 12.78292157 14.97179285 11.21704102 14.95507812 C8.82399706 14.93369648 6.43396524 14.95485727 4.04101562 14.98046875 C2.51822255 14.97782489 0.99543136 14.9726987 -0.52734375 14.96484375 C-1.59782204 14.97698914 -1.59782204 14.97698914 -2.68992615 14.98937988 C-6.0791929 14.92566622 -7.9644156 14.64186338 -10.73266602 12.62304688 C-12.25 10.43359375 -12.25 10.43359375 -12.25 6.87109375 C-11.25 3.43359375 -11.25 3.43359375 -9.640625 1.74584961 C-6.34243955 -0.06458205 -3.75182711 0.02826015 0 0 Z " fill="#ffffff" transform="translate(110.25,48.56640625)"/>
<path d="M0 0 C0.69512695 -0.00287018 1.39025391 -0.00574036 2.10644531 -0.00869751 C3.57227394 -0.01073384 5.03813001 -0.00523406 6.50390625 0.00732422 C8.74280777 0.0233859 10.97990437 0.00746292 13.21875 -0.01171875 C14.6458373 -0.00973624 16.07292349 -0.0058924 17.5 0 C18.79421875 0.00338379 20.0884375 0.00676758 21.421875 0.01025391 C24.89953404 0.41587875 26.3158852 0.93607597 28.75 3.3984375 C29.24609375 5.3359375 29.24609375 5.3359375 29.1875 7.3984375 C29.18621094 8.0790625 29.18492187 8.7596875 29.18359375 9.4609375 C28.59393515 12.09580837 27.95649123 12.80954275 25.75 14.3984375 C23.12746542 14.69662328 20.74706034 14.81902674 18.125 14.796875 C17.0100415 14.80118027 17.0100415 14.80118027 15.87255859 14.80557251 C14.3024011 14.80761226 12.73221814 14.8020885 11.16210938 14.78955078 C8.75853668 14.77349453 6.35664539 14.78940102 3.953125 14.80859375 C2.42707962 14.8066113 0.90103529 14.80276759 -0.625 14.796875 C-1.34381348 14.80294769 -2.06262695 14.80902039 -2.80322266 14.8152771 C-7.76833877 14.74528184 -7.76833877 14.74528184 -10.19946289 12.99462891 C-11.50358476 11.01313952 -11.68302344 9.76206118 -11.6875 7.3984375 C-11.70683594 6.7178125 -11.72617188 6.0371875 -11.74609375 5.3359375 C-11.25 3.3984375 -11.25 3.3984375 -9.67211914 1.80224609 C-6.35104943 -0.12257507 -3.82577813 0.01000266 0 0 Z " fill="#ffffff" transform="translate(163.25,48.6015625)"/>
</svg>
